4d54 6864 0000 0006 0001 0012 01e0 4d54 726b 0000 0063 00ff 0300 00ff 0212 436f 7079 7269 6768 7420 2843 2920 3230 3137 00ff 0110 8179 8354 8343 8367 96bc 817a 2055 524c 00ff 5103 0f42 4000 ff06 0553 6574 7570 00ff 5804 0103 1808 8170 ff51 0307 a120 00ff 0605 5374 6172 7400 ff58 0404 0218 0800 ff2f 004d 5472 6b00 0002 a600 ff03 0c53 7973 7465 6d20 5365 7475 7000 ff21 0100 00ff 013d 2d2d 2d2d 2052 6573 6574 202d 2d2d 2d2d 2d2d 2d2d 2d2d 2d2d 2d2d 2d2d 2d2d 2d2d 2d2d 2d2d 2d2d 2d2d 2d2d 2d2d 2d2d 2d2d 2d2d 2d2d 2d2d 2d2d 2d2d 2d2d 2d00 f005 7e7f 0901 f73c f00a 4110 4212 4000 7f00 41f7 3cff 0140 2d2d 2d2d 2091 5391 cc90 dd92 e820 2d2d 2d2d 2d2d 2d2d 2d2d 2d2d 2d2d 2d2d 2d2d 2d2d 2d2d 2d2d 2d2d 2d2d 2d2d 2d2d 2d2d 2d2d 2d2d 2d2d 2d2d 2d2d 2d2d 2d2d 2d2d 00f0 077f 7f04 0100 7ff7 04ff 0141 2d2d 2d2d 2044 7275 6d20 92c7 89c1 202d 2d2d 2d2d 2d2d 2d2d 2d2d 2d2d 2d2d 2d2d 2d2d 2d2d 2d2d 2d2d 2d2d 2d2d 2d2d 2d2d 2d2d 2d2d 2d2d 2d2d 2d2d 2d2d 2d2d 2d2d 2d00 f00a 4110 4212 4011 1500 1af7 04f0 0a41 1042 1240 1215 0019 f704 f00a 4110 4212 4013 1500 18f7 04f0 0a41 1042 1240 1415 0017 f704 f00a 4110 4212 4015 1500 16f7 04f0 0a41 1042 1240 1615 0015 f704 f00a 4110 4212 4017 1500 14f7 04f0 0a41 1042 1240 1815 0013 f704 f00a 4110 4212 4019 1500 12f7 04f0 0a41 1042 1240 1015 011a f704 f00a 4110 4212 401a 1500 11f7 04f0 0a41 1042 1240 1b15 0010 f704 f00a 4110 4212 401c 1500 0ff7 04f0 0a41 1042 1240 1d15 000e f704 f00a 4110 4212 401e 1500 0df7 04f0 0a41 1042 1240 1f15 000c f704 ff01 402d 2d2d 2d20 4348 2053 6574 7570 202d 2d2d 2d2d 2d2d 2d2d 2d2d 2d2d 2d2d 2d2d 2d2d 2d2d 2d2d 2d2d 2d2d 2d2d 2d2d 2d2d 2d2d 2d2d 2d2d 2d2d 2d2d 2d2d 2d2d 2d2d 2d16 ff01 3d2d 2d2d 2d20 4c61 7965 7220 2d2d 2d2d 2d2d 2d2d 2d2d 2d2d 2d2d 2d2d 2d2d 2d2d 2d2d 2d2d 2d2d 2d2d 2d2d 2d2d 2d2d 2d2d 2d2d 2d2d 2d2d 2d2d 2d2d 2d2d 2d2d 1cff 014b 2d2d 2d2d 2045 6e64 206f 6620 5379 7374 656d 2053 6574 7570 202d 2d2d 2d2d 2d2d 2d2d 2d2d 2d2d 2d2d 2d2d 2d2d 2d2d 2d2d 2d2d 2d2d 2d2d 2d2d 2d2d 2d2d 2d2d 2d2d 2d2d 2d2d 2d2d 2d2d 2d2d 2d02 ff2f 004d 5472 6b00 0001 4c00 ff03 0000 ff21 0100 00ff 0144 2d2d 2d2d 2053 7973 7465 6d20 5365 7475 7020 2d2d 2d2d 2d2d 2d2d 2d2d 2d2d 2d2d 2d2d 2d2d 2d2d 2d2d 2d2d 2d2d 2d2d 2d2d 2d2d 2d2d 2d2d 2d2d 2d2d 2d2d 2d2d 2d2d 2d2d 2d2d 813c ff01 402d 2d2d 2d20 4348 2053 6574 7570 202d 2d2d 2d2d 2d2d 2d2d 2d2d 2d2d 2d2d 2d2d 2d2d 2d2d 2d2d 2d2d 2d2d 2d2d 2d2d 2d2d 2d2d 2d2d 2d2d 2d2d 2d2d 2d2d 2d2d 2d2d 2d00 b079 0001 b000 0800 b020 0000 c050 03b0 0a40 01b0 0764 01b0 5b00 01b0 0b7f 01b0 0100 01b0 6500 00b0 6401 00b0 0640 00b0 2600 04b0 6500 00b0 6402 00b0 0640 03b0 6500 00b0 6400 00b0 060c 03e0 0040 01b0 657f 00b0 647f 02ff 0147 2d2d 2d2d 2045 6e64 206f 6620 4348 2053 6574 7570 202d 2d2d 2d2d 2d2d 2d2d 2d2d 2d2d 2d2d 2d2d 2d2d 2d2d 2d2d 2d2d 2d2d 2d2d 2d2d 2d2d 2d2d 2d2d 2d2d 2d2d 2d2d 2d2d 2d2d 2d2d 2d1e b007 0000 e000 0000 9051 6478 8051 0000 b007 0000 e000 0000 9051 6478 8051 0000 b007 0000 e000 0000 9051 6478 8051 0000 b007 0000 e000 0000 9051 6478 8051 0000 b007 0000 e000 0000 9051 6478 8051 0000 b007 0000 e000 0000 9051 6478 8051 0000 b007 0000 e000 0000 9051 6478 8051 0000 b007 0000 e000 0000 9051 6478 8051 0000 b007 0000 e000 0000 9051 6478 8051 0000 b007 0000 e000 0000 9051 6478 8051 0000 b007 0000 e000 0000 9051 6478 8051 0000 b007 0000 e000 0000 9051 6478 8051 0000 b007 0000 e000 0000 9051 6478 8051 0000 b007 0000 e000 0000 9051 6478 8051 0000 b007 0000 e000 0000 9051 6478 8051 0000 b007 0000 e000 0000 9051 6478 8051 0000 b007 0000 e000 0000 9051 6478 8051 0000 b007 0000 e000 0000 9051 6478 8051 0000 b007 0000 e000 0000 9051 6478 8051 0000 b007 0000 e000 0000 9051 6478 8051 0000 ff2f 004d 5472 6b00 0002 7c00 ff03 0000 ff21 0100 00ff 0144 2d2d 2d2d 2053 7973 7465 6d20 5365 7475 7020 2d2d 2d2d 2d2d 2d2d 2d2d 2d2d 2d2d 2d2d 2d2d 2d2d 2d2d 2d2d 2d2d 2d2d 2d2d 2d2d 2d2d 2d2d 2d2d 2d2d 2d2d 2d2d 2d2d 2d2d 2d2d 813c ff01 402d 2d2d 2d20 4348 2053 6574 7570 202d 2d2d 2d2d 2d2d 2d2d 2d2d 2d2d 2d2d 2d2d 2d2d 2d2d 2d2d 2d2d 2d2d 2d2d 2d2d 2d2d 2d2d 2d2d 2d2d 2d2d 2d2d 2d2d 2d2d 2d2d 2d00 b179 0001 b100 0800 b120 0000 c150 03b1 0a40 01b1 0764 01b1 5b00 01b1 0b7f 01b1 0100 01b1 6500 00b1 6401 00b1 0640 00b1 2600 04b1 6500 00b1 6402 00b1 0640 03b1 6500 00b1 6400 00b1 060c 03e1 0040 01b1 657f 00b1 647f 02ff 0147 2d2d 2d2d 2045 6e64 206f 6620 4348 2053 6574 7570 202d 2d2d 2d2d 2d2d 2d2d 2d2d 2d2d 2d2d 2d2d 2d2d 2d2d 2d2d 2d2d 2d2d 2d2d 2d2d 2d2d 2d2d 2d2d 2d2d 2d2d 2d2d 2d2d 2d2d 2d2d 2d1e b107 0000 e100 0000 9151 6478 8151 0000 b107 0000 e100 0000 9151 6478 8151 0000 b107 0000 e100 0000 9151 6478 8151 0000 b107 0000 e100 0000 9151 6478 8151 0000 b107 0000 e100 0000 9151 6478 8151 0000 b107 0000 e100 0000 9151 6478 8151 0000 b107 0000 e100 0000 9151 6478 8151 0000 b107 0000 e100 0000 9151 6478 8151 0000 b107 0000 e100 0000 9151 6478 8151 0000 b107 0000 e100 0000 9151 6478 8151 0000 b107 0000 e100 0000 9151 6478 8151 0000 b107 0000 e100 0000 9151 6478 8151 0000 b107 0000 e100 0000 9151 6478 8151 0000 b107 0000 e100 0000 9151 6478 8151 0000 b107 0000 e100 0000 9151 6478 8151 0000 b107 0000 e100 0000 9151 6478 8151 0000 b107 0000 e100 0000 9151 6478 8151 0000 b107 0000 e100 0000 9151 6478 8151 0000 b107 0000 e100 0000 9151 6478 8151 0000 b107 0000 e100 0000 9151 6478 8151 0000 ff2f 004d 5472 6b00 0002 7c00 ff03 0000 ff21 0100 00ff 0144 2d2d 2d2d 2053 7973 7465 6d20 5365 7475 7020 2d2d 2d2d 2d2d 2d2d 2d2d 2d2d 2d2d 2d2d 2d2d 2d2d 2d2d 2d2d 2d2d 2d2d 2d2d 2d2d 2d2d 2d2d 2d2d 2d2d 2d2d 2d2d 2d2d 2d2d 2d2d 813c ff01 402d 2d2d 2d20 4348 2053 6574 7570 202d 2d2d 2d2d 2d2d 2d2d 2d2d 2d2d 2d2d 2d2d 2d2d 2d2d 2d2d 2d2d 2d2d 2d2d 2d2d 2d2d 2d2d 2d2d 2d2d 2d2d 2d2d 2d2d 2d2d 2d2d 2d00 b279 0001 b200 0800 b220 0000 c250 03b2 0a40 01b2 0764 01b2 5b00 01b2 0b7f 01b2 0100 01b2 6500 00b2 6401 00b2 0640 00b2 2600 04b2 6500 00b2 6402 00b2 0640 03b2 6500 00b2 6400 00b2 060c 03e2 0040 01b2 657f 00b2 647f 02ff 0147 2d2d 2d2d 2045 6e64 206f 6620 4348 2053 6574 7570 202d 2d2d 2d2d 2d2d 2d2d 2d2d 2d2d 2d2d 2d2d 2d2d 2d2d 2d2d 2d2d 2d2d 2d2d 2d2d 2d2d 2d2d 2d2d 2d2d 2d2d 2d2d 2d2d 2d2d 2d2d 2d1e b207 0000 e200 0000 9251 6478 8251 0000 b207 0000 e200 0000 9251 6478 8251 0000 b207 0000 e200 0000 9251 6478 8251 0000 b207 0000 e200 0000 9251 6478 8251 0000 b207 0000 e200 0000 9251 6478 8251 0000 b207 0000 e200 0000 9251 6478 8251 0000 b207 0000 e200 0000 9251 6478 8251 0000 b207 0000 e200 0000 9251 6478 8251 0000 b207 0000 e200 0000 9251 6478 8251 0000 b207 0000 e200 0000 9251 6478 8251 0000 b207 0000 e200 0000 9251 6478 8251 0000 b207 0000 e200 0000 9251 6478 8251 0000 b207 0000 e200 0000 9251 6478 8251 0000 b207 0000 e200 0000 9251 6478 8251 0000 b207 0000 e200 0000 9251 6478 8251 0000 b207 0000 e200 0000 9251 6478 8251 0000 b207 0000 e200 0000 9251 6478 8251 0000 b207 0000 e200 0000 9251 6478 8251 0000 b207 0000 e200 0000 9251 6478 8251 0000 b207 0000 e200 0000 9251 6478 8251 0000 ff2f 004d 5472 6b00 0002 7c00 ff03 0000 ff21 0100 00ff 0144 2d2d 2d2d 2053 7973 7465 6d20 5365 7475 7020 2d2d 2d2d 2d2d 2d2d 2d2d 2d2d 2d2d 2d2d 2d2d 2d2d 2d2d 2d2d 2d2d 2d2d 2d2d 2d2d 2d2d 2d2d 2d2d 2d2d 2d2d 2d2d 2d2d 2d2d 2d2d 813c ff01 402d 2d2d 2d20 4348 2053 6574 7570 202d 2d2d 2d2d 2d2d 2d2d 2d2d 2d2d 2d2d 2d2d 2d2d 2d2d 2d2d 2d2d 2d2d 2d2d 2d2d 2d2d 2d2d 2d2d 2d2d 2d2d 2d2d 2d2d 2d2d 2d2d 2d00 b379 0001 b300 0800 b320 0000 c350 03b3 0a40 01b3 0764 01b3 5b00 01b3 0b7f 01b3 0100 01b3 6500 00b3 6401 00b3 0640 00b3 2600 04b3 6500 00b3 6402 00b3 0640 03b3 6500 00b3 6400 00b3 060c 03e3 0040 01b3 657f 00b3 647f 02ff 0147 2d2d 2d2d 2045 6e64 206f 6620 4348 2053 6574 7570 202d 2d2d 2d2d 2d2d 2d2d 2d2d 2d2d 2d2d 2d2d 2d2d 2d2d 2d2d 2d2d 2d2d 2d2d 2d2d 2d2d 2d2d 2d2d 2d2d 2d2d 2d2d 2d2d 2d2d 2d2d 2d1e b307 0000 e300 0000 9351 6478 8351 0000 b307 0000 e300 0000 9351 6478 8351 0000 b307 0000 e300 0000 9351 6478 8351 0000 b307 0000 e300 0000 9351 6478 8351 0000 b307 0000 e300 0000 9351 6478 8351 0000 b307 0000 e300 0000 9351 6478 8351 0000 b307 0000 e300 0000 9351 6478 8351 0000 b307 0000 e300 0000 9351 6478 8351 0000 b307 0000 e300 0000 9351 6478 8351 0000 b307 0000 e300 0000 9351 6478 8351 0000 b307 0000 e300 0000 9351 6478 8351 0000 b307 0000 e300 0000 9351 6478 8351 0000 b307 0000 e300 0000 9351 6478 8351 0000 b307 0000 e300 0000 9351 6478 8351 0000 b307 0000 e300 0000 9351 6478 8351 0000 b307 0000 e300 0000 9351 6478 8351 0000 b307 0000 e300 0000 9351 6478 8351 0000 b307 0000 e300 0000 9351 6478 8351 0000 b307 0000 e300 0000 9351 6478 8351 0000 b307 0000 e300 0000 9351 6478 8351 0000 ff2f 004d 5472 6b00 0002 7c00 ff03 0000 ff21 0100 00ff 0144 2d2d 2d2d 2053 7973 7465 6d20 5365 7475 7020 2d2d 2d2d 2d2d 2d2d 2d2d 2d2d 2d2d 2d2d 2d2d 2d2d 2d2d 2d2d 2d2d 2d2d 2d2d 2d2d 2d2d 2d2d 2d2d 2d2d 2d2d 2d2d 2d2d 2d2d 2d2d 813c ff01 402d 2d2d 2d20 4348 2053 6574 7570 202d 2d2d 2d2d 2d2d 2d2d 2d2d 2d2d 2d2d 2d2d 2d2d 2d2d 2d2d 2d2d 2d2d 2d2d 2d2d 2d2d 2d2d 2d2d 2d2d 2d2d 2d2d 2d2d 2d2d 2d2d 2d00 b479 0001 b400 0800 b420 0000 c450 03b4 0a40 01b4 0764 01b4 5b00 01b4 0b7f 01b4 0100 01b4 6500 00b4 6401 00b4 0640 00b4 2600 04b4 6500 00b4 6402 00b4 0640 03b4 6500 00b4 6400 00b4 060c 03e4 0040 01b4 657f 00b4 647f 02ff 0147 2d2d 2d2d 2045 6e64 206f 6620 4348 2053 6574 7570 202d 2d2d 2d2d 2d2d 2d2d 2d2d 2d2d 2d2d 2d2d 2d2d 2d2d 2d2d 2d2d 2d2d 2d2d 2d2d 2d2d 2d2d 2d2d 2d2d 2d2d 2d2d 2d2d 2d2d 2d2d 2d1e b407 0000 e400 0000 9451 6478 8451 0000 b407 0000 e400 0000 9451 6478 8451 0000 b407 0000 e400 0000 9451 6478 8451 0000 b407 0000 e400 0000 9451 6478 8451 0000 b407 0000 e400 0000 9451 6478 8451 0000 b407 0000 e400 0000 9451 6478 8451 0000 b407 0000 e400 0000 9451 6478 8451 0000 b407 0000 e400 0000 9451 6478 8451 0000 b407 0000 e400 0000 9451 6478 8451 0000 b407 0000 e400 0000 9451 6478 8451 0000 b407 0000 e400 0000 9451 6478 8451 0000 b407 0000 e400 0000 9451 6478 8451 0000 b407 0000 e400 0000 9451 6478 8451 0000 b407 0000 e400 0000 9451 6478 8451 0000 b407 0000 e400 0000 9451 6478 8451 0000 b407 0000 e400 0000 9451 6478 8451 0000 b407 0000 e400 0000 9451 6478 8451 0000 b407 0000 e400 0000 9451 6478 8451 0000 b407 0000 e400 0000 9451 6478 8451 0000 b407 0000 e400 0000 9451 6478 8451 0000 ff2f 004d 5472 6b00 0002 7c00 ff03 0000 ff21 0100 00ff 0144 2d2d 2d2d 2053 7973 7465 6d20 5365 7475 7020 2d2d 2d2d 2d2d 2d2d 2d2d 2d2d 2d2d 2d2d 2d2d 2d2d 2d2d 2d2d 2d2d 2d2d 2d2d 2d2d 2d2d 2d2d 2d2d 2d2d 2d2d 2d2d 2d2d 2d2d 2d2d 813c ff01 402d 2d2d 2d20 4348 2053 6574 7570 202d 2d2d 2d2d 2d2d 2d2d 2d2d 2d2d 2d2d 2d2d 2d2d 2d2d 2d2d 2d2d 2d2d 2d2d 2d2d 2d2d 2d2d 2d2d 2d2d 2d2d 2d2d 2d2d 2d2d 2d2d 2d00 b579 0001 b500 0800 b520 0000 c550 03b5 0a40 01b5 0764 01b5 5b00 01b5 0b7f 01b5 0100 01b5 6500 00b5 6401 00b5 0640 00b5 2600 04b5 6500 00b5 6402 00b5 0640 03b5 6500 00b5 6400 00b5 060c 03e5 0040 01b5 657f 00b5 647f 02ff 0147 2d2d 2d2d 2045 6e64 206f 6620 4348 2053 6574 7570 202d 2d2d 2d2d 2d2d 2d2d 2d2d 2d2d 2d2d 2d2d 2d2d 2d2d 2d2d 2d2d 2d2d 2d2d 2d2d 2d2d 2d2d 2d2d 2d2d 2d2d 2d2d 2d2d 2d2d 2d2d 2d1e b507 0000 e500 0000 9551 6478 8551 0000 b507 0000 e500 0000 9551 6478 8551 0000 b507 0000 e500 0000 9551 6478 8551 0000 b507 0000 e500 0000 9551 6478 8551 0000 b507 0000 e500 0000 9551 6478 8551 0000 b507 0000 e500 0000 9551 6478 8551 0000 b507 0000 e500 0000 9551 6478 8551 0000 b507 0000 e500 0000 9551 6478 8551 0000 b507 0000 e500 0000 9551 6478 8551 0000 b507 0000 e500 0000 9551 6478 8551 0000 b507 0000 e500 0000 9551 6478 8551 0000 b507 0000 e500 0000 9551 6478 8551 0000 b507 0000 e500 0000 9551 6478 8551 0000 b507 0000 e500 0000 9551 6478 8551 0000 b507 0000 e500 0000 9551 6478 8551 0000 b507 0000 e500 0000 9551 6478 8551 0000 b507 0000 e500 0000 9551 6478 8551 0000 b507 0000 e500 0000 9551 6478 8551 0000 b507 0000 e500 0000 9551 6478 8551 0000 b507 0000 e500 0000 9551 6478 8551 0000 ff2f 004d 5472 6b00 0002 7c00 ff03 0000 ff21 0100 00ff 0144 2d2d 2d2d 2053 7973 7465 6d20 5365 7475 7020 2d2d 2d2d 2d2d 2d2d 2d2d 2d2d 2d2d 2d2d 2d2d 2d2d 2d2d 2d2d 2d2d 2d2d 2d2d 2d2d 2d2d 2d2d 2d2d 2d2d 2d2d 2d2d 2d2d 2d2d 2d2d 813c ff01 402d 2d2d 2d20 4348 2053 6574 7570 202d 2d2d 2d2d 2d2d 2d2d 2d2d 2d2d 2d2d 2d2d 2d2d 2d2d 2d2d 2d2d 2d2d 2d2d 2d2d 2d2d 2d2d 2d2d 2d2d 2d2d 2d2d 2d2d 2d2d 2d2d 2d00 b679 0001 b600 0800 b620 0000 c650 03b6 0a40 01b6 0764 01b6 5b00 01b6 0b7f 01b6 0100 01b6 6500 00b6 6401 00b6 0640 00b6 2600 04b6 6500 00b6 6402 00b6 0640 03b6 6500 00b6 6400 00b6 060c 03e6 0040 01b6 657f 00b6 647f 02ff 0147 2d2d 2d2d 2045 6e64 206f 6620 4348 2053 6574 7570 202d 2d2d 2d2d 2d2d 2d2d 2d2d 2d2d 2d2d 2d2d 2d2d 2d2d 2d2d 2d2d 2d2d 2d2d 2d2d 2d2d 2d2d 2d2d 2d2d 2d2d 2d2d 2d2d 2d2d 2d2d 2d1e b607 0000 e600 0000 9651 6478 8651 0000 b607 0000 e600 0000 9651 6478 8651 0000 b607 0000 e600 0000 9651 6478 8651 0000 b607 0000 e600 0000 9651 6478 8651 0000 b607 0000 e600 0000 9651 6478 8651 0000 b607 0000 e600 0000 9651 6478 8651 0000 b607 0000 e600 0000 9651 6478 8651 0000 b607 0000 e600 0000 9651 6478 8651 0000 b607 0000 e600 0000 9651 6478 8651 0000 b607 0000 e600 0000 9651 6478 8651 0000 b607 0000 e600 0000 9651 6478 8651 0000 b607 0000 e600 0000 9651 6478 8651 0000 b607 0000 e600 0000 9651 6478 8651 0000 b607 0000 e600 0000 9651 6478 8651 0000 b607 0000 e600 0000 9651 6478 8651 0000 b607 0000 e600 0000 9651 6478 8651 0000 b607 0000 e600 0000 9651 6478 8651 0000 b607 0000 e600 0000 9651 6478 8651 0000 b607 0000 e600 0000 9651 6478 8651 0000 b607 0000 e600 0000 9651 6478 8651 0000 ff2f 004d 5472 6b00 0002 7c00 ff03 0000 ff21 0100 00ff 0144 2d2d 2d2d 2053 7973 7465 6d20 5365 7475 7020 2d2d 2d2d 2d2d 2d2d 2d2d 2d2d 2d2d 2d2d 2d2d 2d2d 2d2d 2d2d 2d2d 2d2d 2d2d 2d2d 2d2d 2d2d 2d2d 2d2d 2d2d 2d2d 2d2d 2d2d 2d2d 813c ff01 402d 2d2d 2d20 4348 2053 6574 7570 202d 2d2d 2d2d 2d2d 2d2d 2d2d 2d2d 2d2d 2d2d 2d2d 2d2d 2d2d 2d2d 2d2d 2d2d 2d2d 2d2d 2d2d 2d2d 2d2d 2d2d 2d2d 2d2d 2d2d 2d2d 2d00 b779 0001 b700 0800 b720 0000 c750 03b7 0a40 01b7 0764 01b7 5b00 01b7 0b7f 01b7 0100 01b7 6500 00b7 6401 00b7 0640 00b7 2600 04b7 6500 00b7 6402 00b7 0640 03b7 6500 00b7 6400 00b7 060c 03e7 0040 01b7 657f 00b7 647f 02ff 0147 2d2d 2d2d 2045 6e64 206f 6620 4348 2053 6574 7570 202d 2d2d 2d2d 2d2d 2d2d 2d2d 2d2d 2d2d 2d2d 2d2d 2d2d 2d2d 2d2d 2d2d 2d2d 2d2d 2d2d 2d2d 2d2d 2d2d 2d2d 2d2d 2d2d 2d2d 2d2d 2d1e b707 0000 e700 0000 9751 6478 8751 0000 b707 0000 e700 0000 9751 6478 8751 0000 b707 0000 e700 0000 9751 6478 8751 0000 b707 0000 e700 0000 9751 6478 8751 0000 b707 0000 e700 0000 9751 6478 8751 0000 b707 0000 e700 0000 9751 6478 8751 0000 b707 0000 e700 0000 9751 6478 8751 0000 b707 0000 e700 0000 9751 6478 8751 0000 b707 0000 e700 0000 9751 6478 8751 0000 b707 0000 e700 0000 9751 6478 8751 0000 b707 0000 e700 0000 9751 6478 8751 0000 b707 0000 e700 0000 9751 6478 8751 0000 b707 0000 e700 0000 9751 6478 8751 0000 b707 0000 e700 0000 9751 6478 8751 0000 b707 0000 e700 0000 9751 6478 8751 0000 b707 0000 e700 0000 9751 6478 8751 0000 b707 0000 e700 0000 9751 6478 8751 0000 b707 0000 e700 0000 9751 6478 8751 0000 b707 0000 e700 0000 9751 6478 8751 0000 b707 0000 e700 0000 9751 6478 8751 0000 ff2f 004d 5472 6b00 0002 7c00 ff03 0000 ff21 0100 00ff 0144 2d2d 2d2d 2053 7973 7465 6d20 5365 7475 7020 2d2d 2d2d 2d2d 2d2d 2d2d 2d2d 2d2d 2d2d 2d2d 2d2d 2d2d 2d2d 2d2d 2d2d 2d2d 2d2d 2d2d 2d2d 2d2d 2d2d 2d2d 2d2d 2d2d 2d2d 2d2d 813c ff01 402d 2d2d 2d20 4348 2053 6574 7570 202d 2d2d 2d2d 2d2d 2d2d 2d2d 2d2d 2d2d 2d2d 2d2d 2d2d 2d2d 2d2d 2d2d 2d2d 2d2d 2d2d 2d2d 2d2d 2d2d 2d2d 2d2d 2d2d 2d2d 2d2d 2d00 b879 0001 b800 0800 b820 0000 c850 03b8 0a40 01b8 0764 01b8 5b00 01b8 0b7f 01b8 0100 01b8 6500 00b8 6401 00b8 0640 00b8 2600 04b8 6500 00b8 6402 00b8 0640 03b8 6500 00b8 6400 00b8 060c 03e8 0040 01b8 657f 00b8 647f 02ff 0147 2d2d 2d2d 2045 6e64 206f 6620 4348 2053 6574 7570 202d 2d2d 2d2d 2d2d 2d2d 2d2d 2d2d 2d2d 2d2d 2d2d 2d2d 2d2d 2d2d 2d2d 2d2d 2d2d 2d2d 2d2d 2d2d 2d2d 2d2d 2d2d 2d2d 2d2d 2d2d 2d1e b807 0000 e800 0000 9851 6478 8851 0000 b807 0000 e800 0000 9851 6478 8851 0000 b807 0000 e800 0000 9851 6478 8851 0000 b807 0000 e800 0000 9851 6478 8851 0000 b807 0000 e800 0000 9851 6478 8851 0000 b807 0000 e800 0000 9851 6478 8851 0000 b807 0000 e800 0000 9851 6478 8851 0000 b807 0000 e800 0000 9851 6478 8851 0000 b807 0000 e800 0000 9851 6478 8851 0000 b807 0000 e800 0000 9851 6478 8851 0000 b807 0000 e800 0000 9851 6478 8851 0000 b807 0000 e800 0000 9851 6478 8851 0000 b807 0000 e800 0000 9851 6478 8851 0000 b807 0000 e800 0000 9851 6478 8851 0000 b807 0000 e800 0000 9851 6478 8851 0000 b807 0000 e800 0000 9851 6478 8851 0000 b807 0000 e800 0000 9851 6478 8851 0000 b807 0000 e800 0000 9851 6478 8851 0000 b807 0000 e800 0000 9851 6478 8851 0000 b807 0000 e800 0000 9851 6478 8851 0000 ff2f 004d 5472 6b00 0001 3800 ff03 0000 ff21 0100 00ff 0144 2d2d 2d2d 2053 7973 7465 6d20 5365 7475 7020 2d2d 2d2d 2d2d 2d2d 2d2d 2d2d 2d2d 2d2d 2d2d 2d2d 2d2d 2d2d 2d2d 2d2d 2d2d 2d2d 2d2d 2d2d 2d2d 2d2d 2d2d 2d2d 2d2d 2d2d 2d2d 813c ff01 402d 2d2d 2d20 4348 2053 6574 7570 202d 2d2d 2d2d 2d2d 2d2d 2d2d 2d2d 2d2d 2d2d 2d2d 2d2d 2d2d 2d2d 2d2d 2d2d 2d2d 2d2d 2d2d 2d2d 2d2d 2d2d 2d2d 2d2d 2d2d 2d2d 2d00 b979 0001 b920 0000 c900 03b9 0a40 01b9 0764 01b9 5b00 01b9 0b7f 01b9 0100 01b9 6500 00b9 6401 00b9 0640 00b9 2600 04b9 6500 00b9 6402 00b9 0640 03b9 6500 00b9 6400 00b9 060c 03e9 0040 01b9 657f 00b9 647f 02ff 0147 2d2d 2d2d 2045 6e64 206f 6620 4348 2053 6574 7570 202d 2d2d 2d2d 2d2d 2d2d 2d2d 2d2d 2d2d 2d2d 2d2d 2d2d 2d2d 2d2d 2d2d 2d2d 2d2d 2d2d 2d2d 2d2d 2d2d 2d2d 2d2d 2d2d 2d2d 2d2d 2d1e ff2f 004d 5472 6b00 0002 7c00 ff03 0000 ff21 0100 00ff 0144 2d2d 2d2d 2053 7973 7465 6d20 5365 7475 7020 2d2d 2d2d 2d2d 2d2d 2d2d 2d2d 2d2d 2d2d 2d2d 2d2d 2d2d 2d2d 2d2d 2d2d 2d2d 2d2d 2d2d 2d2d 2d2d 2d2d 2d2d 2d2d 2d2d 2d2d 2d2d 813c ff01 402d 2d2d 2d20 4348 2053 6574 7570 202d 2d2d 2d2d 2d2d 2d2d 2d2d 2d2d 2d2d 2d2d 2d2d 2d2d 2d2d 2d2d 2d2d 2d2d 2d2d 2d2d 2d2d 2d2d 2d2d 2d2d 2d2d 2d2d 2d2d 2d2d 2d00 ba79 0001 ba00 0800 ba20 0000 ca50 03ba 0a40 01ba 0764 01ba 5b00 01ba 0b7f 01ba 0100 01ba 6500 00ba 6401 00ba 0640 00ba 2600 04ba 6500 00ba 6402 00ba 0640 03ba 6500 00ba 6400 00ba 060c 03ea 0040 01ba 657f 00ba 647f 02ff 0147 2d2d 2d2d 2045 6e64 206f 6620 4348 2053 6574 7570 202d 2d2d 2d2d 2d2d 2d2d 2d2d 2d2d 2d2d 2d2d 2d2d 2d2d 2d2d 2d2d 2d2d 2d2d 2d2d 2d2d 2d2d 2d2d 2d2d 2d2d 2d2d 2d2d 2d2d 2d2d 2d1e ba07 0000 ea00 0000 9a51 6478 8a51 0000 ba07 0000 ea00 0000 9a51 6478 8a51 0000 ba07 0000 ea00 0000 9a51 6478 8a51 0000 ba07 0000 ea00 0000 9a51 6478 8a51 0000 ba07 0000 ea00 0000 9a51 6478 8a51 0000 ba07 0000 ea00 0000 9a51 6478 8a51 0000 ba07 0000 ea00 0000 9a51 6478 8a51 0000 ba07 0000 ea00 0000 9a51 6478 8a51 0000 ba07 0000 ea00 0000 9a51 6478 8a51 0000 ba07 0000 ea00 0000 9a51 6478 8a51 0000 ba07 0000 ea00 0000 9a51 6478 8a51 0000 ba07 0000 ea00 0000 9a51 6478 8a51 0000 ba07 0000 ea00 0000 9a51 6478 8a51 0000 ba07 0000 ea00 0000 9a51 6478 8a51 0000 ba07 0000 ea00 0000 9a51 6478 8a51 0000 ba07 0000 ea00 0000 9a51 6478 8a51 0000 ba07 0000 ea00 0000 9a51 6478 8a51 0000 ba07 0000 ea00 0000 9a51 6478 8a51 0000 ba07 0000 ea00 0000 9a51 6478 8a51 0000 ba07 0000 ea00 0000 9a51 6478 8a51 0000 ff2f 004d 5472 6b00 0002 7c00 ff03 0000 ff21 0100 00ff 0144 2d2d 2d2d 2053 7973 7465 6d20 5365 7475 7020 2d2d 2d2d 2d2d 2d2d 2d2d 2d2d 2d2d 2d2d 2d2d 2d2d 2d2d 2d2d 2d2d 2d2d 2d2d 2d2d 2d2d 2d2d 2d2d 2d2d 2d2d 2d2d 2d2d 2d2d 2d2d 813c ff01 402d 2d2d 2d20 4348 2053 6574 7570 202d 2d2d 2d2d 2d2d 2d2d 2d2d 2d2d 2d2d 2d2d 2d2d 2d2d 2d2d 2d2d 2d2d 2d2d 2d2d 2d2d 2d2d 2d2d 2d2d 2d2d 2d2d 2d2d 2d2d 2d2d 2d00 bb79 0001 bb00 0800 bb20 0000 cb50 03bb 0a40 01bb 0764 01bb 5b00 01bb 0b7f 01bb 0100 01bb 6500 00bb 6401 00bb 0640 00bb 2600 04bb 6500 00bb 6402 00bb 0640 03bb 6500 00bb 6400 00bb 060c 03eb 0040 01bb 657f 00bb 647f 02ff 0147 2d2d 2d2d 2045 6e64 206f 6620 4348 2053 6574 7570 202d 2d2d 2d2d 2d2d 2d2d 2d2d 2d2d 2d2d 2d2d 2d2d 2d2d 2d2d 2d2d 2d2d 2d2d 2d2d 2d2d 2d2d 2d2d 2d2d 2d2d 2d2d 2d2d 2d2d 2d2d 2d1e bb07 0000 eb00 0000 9b51 6478 8b51 0000 bb07 0000 eb00 0000 9b51 6478 8b51 0000 bb07 0000 eb00 0000 9b51 6478 8b51 0000 bb07 0000 eb00 0000 9b51 6478 8b51 0000 bb07 0000 eb00 0000 9b51 6478 8b51 0000 bb07 0000 eb00 0000 9b51 6478 8b51 0000 bb07 0000 eb00 0000 9b51 6478 8b51 0000 bb07 0000 eb00 0000 9b51 6478 8b51 0000 bb07 0000 eb00 0000 9b51 6478 8b51 0000 bb07 0000 eb00 0000 9b51 6478 8b51 0000 bb07 0000 eb00 0000 9b51 6478 8b51 0000 bb07 0000 eb00 0000 9b51 6478 8b51 0000 bb07 0000 eb00 0000 9b51 6478 8b51 0000 bb07 0000 eb00 0000 9b51 6478 8b51 0000 bb07 0000 eb00 0000 9b51 6478 8b51 0000 bb07 0000 eb00 0000 9b51 6478 8b51 0000 bb07 0000 eb00 0000 9b51 6478 8b51 0000 bb07 0000 eb00 0000 9b51 6478 8b51 0000 bb07 0000 eb00 0000 9b51 6478 8b51 0000 bb07 0000 eb00 0000 9b51 6478 8b51 0000 ff2f 004d 5472 6b00 0002 7c00 ff03 0000 ff21 0100 00ff 0144 2d2d 2d2d 2053 7973 7465 6d20 5365 7475 7020 2d2d 2d2d 2d2d 2d2d 2d2d 2d2d 2d2d 2d2d 2d2d 2d2d 2d2d 2d2d 2d2d 2d2d 2d2d 2d2d 2d2d 2d2d 2d2d 2d2d 2d2d 2d2d 2d2d 2d2d 2d2d 813c ff01 402d 2d2d 2d20 4348 2053 6574 7570 202d 2d2d 2d2d 2d2d 2d2d 2d2d 2d2d 2d2d 2d2d 2d2d 2d2d 2d2d 2d2d 2d2d 2d2d 2d2d 2d2d 2d2d 2d2d 2d2d 2d2d 2d2d 2d2d 2d2d 2d2d 2d00 bc79 0001 bc00 0800 bc20 0000 cc50 03bc 0a40 01bc 0764 01bc 5b00 01bc 0b7f 01bc 0100 01bc 6500 00bc 6401 00bc 0640 00bc 2600 04bc 6500 00bc 6402 00bc 0640 03bc 6500 00bc 6400 00bc 060c 03ec 0040 01bc 657f 00bc 647f 02ff 0147 2d2d 2d2d 2045 6e64 206f 6620 4348 2053 6574 7570 202d 2d2d 2d2d 2d2d 2d2d 2d2d 2d2d 2d2d 2d2d 2d2d 2d2d 2d2d 2d2d 2d2d 2d2d 2d2d 2d2d 2d2d 2d2d 2d2d 2d2d 2d2d 2d2d 2d2d 2d2d 2d1e bc07 3c00 ec0d 2000 9c51 6478 8c51 0000 bc07 3c00 ec0d 2000 9c51 6478 8c51 0000 bc07 3c00 ec0d 2000 9c51 6478 8c51 0000 bc07 3c00 ec0d 2000 9c51 6478 8c51 0000 bc07 3c00 ec0d 2000 9c51 6478 8c51 0000 bc07 3c00 ec0d 2000 9c51 6478 8c51 0000 bc07 3c00 ec0d 2000 9c51 6478 8c51 0000 bc07 3c00 ec0d 2000 9c51 6478 8c51 0000 bc07 3c00 ec0d 2000 9c51 6478 8c51 0000 bc07 3c00 ec0d 2000 9c51 6478 8c51 0000 bc07 3c00 ec0d 2000 9c51 6478 8c51 0000 bc07 3c00 ec0d 2000 9c51 6478 8c51 0000 bc07 3c00 ec0d 2000 9c51 6478 8c51 0000 bc07 3c00 ec0d 2000 9c51 6478 8c51 0000 bc07 3c00 ec0d 2000 9c51 6478 8c51 0000 bc07 3c00 ec0d 2000 9c51 6478 8c51 0000 bc07 3c00 ec0d 2000 9c51 6478 8c51 0000 bc07 3c00 ec0d 2000 9c51 6478 8c51 0000 bc07 3b00 ec0d 2000 9c51 6478 8c51 0000 bc07 3b00 ec0d 2000 9c51 6478 8c51 0000 ff2f 004d 5472 6b00 0002 7c00 ff03 0000 ff21 0100 00ff 0144 2d2d 2d2d 2053 7973 7465 6d20 5365 7475 7020 2d2d 2d2d 2d2d 2d2d 2d2d 2d2d 2d2d 2d2d 2d2d 2d2d 2d2d 2d2d 2d2d 2d2d 2d2d 2d2d 2d2d 2d2d 2d2d 2d2d 2d2d 2d2d 2d2d 2d2d 2d2d 813c ff01 402d 2d2d 2d20 4348 2053 6574 7570 202d 2d2d 2d2d 2d2d 2d2d 2d2d 2d2d 2d2d 2d2d 2d2d 2d2d 2d2d 2d2d 2d2d 2d2d 2d2d 2d2d 2d2d 2d2d 2d2d 2d2d 2d2d 2d2d 2d2d 2d2d 2d00 bd79 0001 bd00 0800 bd20 0000 cd50 03bd 0a40 01bd 0764 01bd 5b00 01bd 0b7f 01bd 0100 01bd 6500 00bd 6401 00bd 0640 00bd 2600 04bd 6500 00bd 6402 00bd 0640 03bd 6500 00bd 6400 00bd 060c 03ed 0040 01bd 657f 00bd 647f 02ff 0147 2d2d 2d2d 2045 6e64 206f 6620 4348 2053 6574 7570 202d 2d2d 2d2d 2d2d 2d2d 2d2d 2d2d 2d2d 2d2d 2d2d 2d2d 2d2d 2d2d 2d2d 2d2d 2d2d 2d2d 2d2d 2d2d 2d2d 2d2d 2d2d 2d2d 2d2d 2d2d 2d1e bd07 1300 ed69 5200 9d51 6478 8d51 0000 bd07 1300 ed69 5200 9d51 6478 8d51 0000 bd07 1300 ed69 5200 9d51 6478 8d51 0000 bd07 1300 ed69 5200 9d51 6478 8d51 0000 bd07 1400 ed69 5200 9d51 6478 8d51 0000 bd07 1400 ed69 5200 9d51 6478 8d51 0000 bd07 1400 ed69 5200 9d51 6478 8d51 0000 bd07 1400 ed69 5200 9d51 6478 8d51 0000 bd07 1400 ed69 5200 9d51 6478 8d51 0000 bd07 1400 ed69 5200 9d51 6478 8d51 0000 bd07 1400 ed69 5200 9d51 6478 8d51 0000 bd07 1400 ed69 5200 9d51 6478 8d51 0000 bd07 1400 ed69 5200 9d51 6478 8d51 0000 bd07 1300 ed69 5200 9d51 6478 8d51 0000 bd07 1300 ed69 5200 9d51 6478 8d51 0000 bd07 1300 ed69 5200 9d51 6478 8d51 0000 bd07 1300 ed69 5200 9d51 6478 8d51 0000 bd07 1300 ed69 5200 9d51 6478 8d51 0000 bd07 1100 ed69 5200 9d51 6478 8d51 0000 bd07 1100 ed69 5200 9d51 6478 8d51 0000 ff2f 004d 5472 6b00 0002 7c00 ff03 0000 ff21 0100 00ff 0144 2d2d 2d2d 2053 7973 7465 6d20 5365 7475 7020 2d2d 2d2d 2d2d 2d2d 2d2d 2d2d 2d2d 2d2d 2d2d 2d2d 2d2d 2d2d 2d2d 2d2d 2d2d 2d2d 2d2d 2d2d 2d2d 2d2d 2d2d 2d2d 2d2d 2d2d 2d2d 813c ff01 402d 2d2d 2d20 4348 2053 6574 7570 202d 2d2d 2d2d 2d2d 2d2d 2d2d 2d2d 2d2d 2d2d 2d2d 2d2d 2d2d 2d2d 2d2d 2d2d 2d2d 2d2d 2d2d 2d2d 2d2d 2d2d 2d2d 2d2d 2d2d 2d2d 2d00 be79 0001 be00 0800 be20 0000 ce50 03be 0a40 01be 0764 01be 5b00 01be 0b7f 01be 0100 01be 6500 00be 6401 00be 0640 00be 2600 04be 6500 00be 6402 00be 0640 03be 6500 00be 6400 00be 060c 03ee 0040 01be 657f 00be 647f 02ff 0147 2d2d 2d2d 2045 6e64 206f 6620 4348 2053 6574 7570 202d 2d2d 2d2d 2d2d 2d2d 2d2d 2d2d 2d2d 2d2d 2d2d 2d2d 2d2d 2d2d 2d2d 2d2d 2d2d 2d2d 2d2d 2d2d 2d2d 2d2d 2d2d 2d2d 2d2d 2d2d 2d1e be07 0a00 ee34 6a00 9e51 6478 8e51 0000 be07 0a00 ee34 6a00 9e51 6478 8e51 0000 be07 0a00 ee34 6a00 9e51 6478 8e51 0000 be07 0a00 ee34 6a00 9e51 6478 8e51 0000 be07 0b00 ee34 6a00 9e51 6478 8e51 0000 be07 0b00 ee34 6a00 9e51 6478 8e51 0000 be07 0b00 ee34 6a00 9e51 6478 8e51 0000 be07 0b00 ee34 6a00 9e51 6478 8e51 0000 be07 0b00 ee34 6a00 9e51 6478 8e51 0000 be07 0b00 ee34 6a00 9e51 6478 8e51 0000 be07 0b00 ee34 6a00 9e51 6478 8e51 0000 be07 0b00 ee34 6a00 9e51 6478 8e51 0000 be07 0b00 ee34 6a00 9e51 6478 8e51 0000 be07 0b00 ee34 6a00 9e51 6478 8e51 0000 be07 0a00 ee34 6a00 9e51 6478 8e51 0000 be07 0a00 ee34 6a00 9e51 6478 8e51 0000 be07 0a00 ee34 6a00 9e51 6478 8e51 0000 be07 0a00 ee34 6a00 9e51 6478 8e51 0000 be07 0800 ee34 6a00 9e51 6478 8e51 0000 be07 0800 ee34 6a00 9e51 6478 8e51 0000 ff2f 004d 5472 6b00 0002 7c00 ff03 0000 ff21 0100 00ff 0144 2d2d 2d2d 2053 7973 7465 6d20 5365 7475 7020 2d2d 2d2d 2d2d 2d2d 2d2d 2d2d 2d2d 2d2d 2d2d 2d2d 2d2d 2d2d 2d2d 2d2d 2d2d 2d2d 2d2d 2d2d 2d2d 2d2d 2d2d 2d2d 2d2d 2d2d 2d2d 813c ff01 402d 2d2d 2d20 4348 2053 6574 7570 202d 2d2d 2d2d 2d2d 2d2d 2d2d 2d2d 2d2d 2d2d 2d2d 2d2d 2d2d 2d2d 2d2d 2d2d 2d2d 2d2d 2d2d 2d2d 2d2d 2d2d 2d2d 2d2d 2d2d 2d2d 2d00 bf79 0001 bf00 0800 bf20 0000 cf50 03bf 0a40 01bf 0764 01bf 5b00 01bf 0b7f 01bf 0100 01bf 6500 00bf 6401 00bf 0640 00bf 2600 04bf 6500 00bf 6402 00bf 0640 03bf 6500 00bf 6400 00bf 060c 03ef 0040 01bf 657f 00bf 647f 02ff 0147 2d2d 2d2d 2045 6e64 206f 6620 4348 2053 6574 7570 202d 2d2d 2d2d 2d2d 2d2d 2d2d 2d2d 2d2d 2d2d 2d2d 2d2d 2d2d 2d2d 2d2d 2d2d 2d2d 2d2d 2d2d 2d2d 2d2d 2d2d 2d2d 2d2d 2d2d 2d2d 2d1e bf07 0600 ef78 7900 9f51 6478 8f51 0000 bf07 0600 ef78 7900 9f51 6478 8f51 0000 bf07 0600 ef78 7900 9f51 6478 8f51 0000 bf07 0600 ef78 7900 9f51 6478 8f51 0000 bf07 0800 ef78 7900 9f51 6478 8f51 0000 bf07 0800 ef78 7900 9f51 6478 8f51 0000 bf07 0800 ef78 7900 9f51 6478 8f51 0000 bf07 0800 ef78 7900 9f51 6478 8f51 0000 bf07 0800 ef78 7900 9f51 6478 8f51 0000 bf07 0800 ef78 7900 9f51 6478 8f51 0000 bf07 0800 ef78 7900 9f51 6478 8f51 0000 bf07 0800 ef78 7900 9f51 6478 8f51 0000 bf07 0800 ef78 7900 9f51 6478 8f51 0000 bf07 0700 ef78 7900 9f51 6478 8f51 0000 bf07 0600 ef78 7900 9f51 6478 8f51 0000 bf07 0600 ef78 7900 9f51 6478 8f51 0000 bf07 0600 ef78 7900 9f51 6478 8f51 0000 bf07 0600 ef78 7900 9f51 6478 8f51 0000 bf07 0300 ef78 7900 9f51 6478 8f51 0000 bf07 0300 ef78 7900 9f51 6478 8f51 0000 ff2f 00