4d54 6864 0000 0006 0001 0012 01e0 4d54
726b 0000 0063 00ff 0300 00ff 0212 436f
7079 7269 6768 7420 2843 2920 3230 3137
00ff 0110 8179 8354 8343 8367 96bc 817a
2055 524c 00ff 5103 0f42 4000 ff06 0553
6574 7570 00ff 5804 0103 1808 8170 ff51
0307 a120 00ff 0605 5374 6172 7400 ff58
0404 0218 0800 ff2f 004d 5472 6b00 0002
a600 ff03 0c53 7973 7465 6d20 5365 7475
7000 ff21 0100 00ff 013d 2d2d 2d2d 2052
6573 6574 202d 2d2d 2d2d 2d2d 2d2d 2d2d
2d2d 2d2d 2d2d 2d2d 2d2d 2d2d 2d2d 2d2d
2d2d 2d2d 2d2d 2d2d 2d2d 2d2d 2d2d 2d2d
2d2d 2d2d 2d2d 2d00 f005 7e7f 0901 f73c
f00a 4110 4212 4000 7f00 41f7 3cff 0140
2d2d 2d2d 2091 5391 cc90 dd92 e820 2d2d
2d2d 2d2d 2d2d 2d2d 2d2d 2d2d 2d2d 2d2d
2d2d 2d2d 2d2d 2d2d 2d2d 2d2d 2d2d 2d2d
2d2d 2d2d 2d2d 2d2d 2d2d 2d2d 2d2d 2d2d
00f0 077f 7f04 0100 7ff7 04ff 0141 2d2d
2d2d 2044 7275 6d20 92c7 89c1 202d 2d2d
2d2d 2d2d 2d2d 2d2d 2d2d 2d2d 2d2d 2d2d
2d2d 2d2d 2d2d 2d2d 2d2d 2d2d 2d2d 2d2d
2d2d 2d2d 2d2d 2d2d 2d2d 2d2d 2d2d 2d00
f00a 4110 4212 4011 1500 1af7 04f0 0a41
1042 1240 1215 0019 f704 f00a 4110 4212
4013 1500 18f7 04f0 0a41 1042 1240 1415
0017 f704 f00a 4110 4212 4015 1500 16f7
04f0 0a41 1042 1240 1615 0015 f704 f00a
4110 4212 4017 1500 14f7 04f0 0a41 1042
1240 1815 0013 f704 f00a 4110 4212 4019
1500 12f7 04f0 0a41 1042 1240 1015 011a
f704 f00a 4110 4212 401a 1500 11f7 04f0
0a41 1042 1240 1b15 0010 f704 f00a 4110
4212 401c 1500 0ff7 04f0 0a41 1042 1240
1d15 000e f704 f00a 4110 4212 401e 1500
0df7 04f0 0a41 1042 1240 1f15 000c f704
ff01 402d 2d2d 2d20 4348 2053 6574 7570
202d 2d2d 2d2d 2d2d 2d2d 2d2d 2d2d 2d2d
2d2d 2d2d 2d2d 2d2d 2d2d 2d2d 2d2d 2d2d
2d2d 2d2d 2d2d 2d2d 2d2d 2d2d 2d2d 2d2d
2d2d 2d16 ff01 3d2d 2d2d 2d20 4c61 7965
7220 2d2d 2d2d 2d2d 2d2d 2d2d 2d2d 2d2d
2d2d 2d2d 2d2d 2d2d 2d2d 2d2d 2d2d 2d2d
2d2d 2d2d 2d2d 2d2d 2d2d 2d2d 2d2d 2d2d
2d2d 2d2d 1cff 014b 2d2d 2d2d 2045 6e64
206f 6620 5379 7374 656d 2053 6574 7570
202d 2d2d 2d2d 2d2d 2d2d 2d2d 2d2d 2d2d
2d2d 2d2d 2d2d 2d2d 2d2d 2d2d 2d2d 2d2d
2d2d 2d2d 2d2d 2d2d 2d2d 2d2d 2d2d 2d2d
2d2d 2d02 ff2f 004d 5472 6b00 0001 4c00
ff03 0000 ff21 0100 00ff 0144 2d2d 2d2d
2053 7973 7465 6d20 5365 7475 7020 2d2d
2d2d 2d2d 2d2d 2d2d 2d2d 2d2d 2d2d 2d2d
2d2d 2d2d 2d2d 2d2d 2d2d 2d2d 2d2d 2d2d
2d2d 2d2d 2d2d 2d2d 2d2d 2d2d 2d2d 2d2d
813c ff01 402d 2d2d 2d20 4348 2053 6574
7570 202d 2d2d 2d2d 2d2d 2d2d 2d2d 2d2d
2d2d 2d2d 2d2d 2d2d 2d2d 2d2d 2d2d 2d2d
2d2d 2d2d 2d2d 2d2d 2d2d 2d2d 2d2d 2d2d
2d2d 2d2d 2d00 b079 0001 b000 0800 b020
0000 c050 03b0 0a40 01b0 0764 01b0 5b00
01b0 0b7f 01b0 0100 01b0 6500 00b0 6401
00b0 0640 00b0 2600 04b0 6500 00b0 6402
00b0 0640 03b0 6500 00b0 6400 00b0 060c
03e0 0040 01b0 657f 00b0 647f 02ff 0147
2d2d 2d2d 2045 6e64 206f 6620 4348 2053
6574 7570 202d 2d2d 2d2d 2d2d 2d2d 2d2d
2d2d 2d2d 2d2d 2d2d 2d2d 2d2d 2d2d 2d2d
2d2d 2d2d 2d2d 2d2d 2d2d 2d2d 2d2d 2d2d
2d2d 2d2d 2d2d 2d1e