4d54 6864 0000 0006 0001 0002 0060 4d54
726b 0000 0017 00ff 0300 00ff 5103 0595
1d00 ff58 0404 0218 0800 ff2f 004d 5472
6b00 0004 2c00 ff03 074c 4541 4473 2031
00ff 2101 0000 9048 6460 8048 0000 9047
6430 8047 0000 9048 6430 8048 0000 9047
6430 8047 0000 9048 6430 8048 0000 9047
642a 8047 0006 9048 642a 8048 0006 9047
642a 8047 0006 9048 640c 8048 0000 9047
640c 8047 0000 9048 6412 8048 0006 9047
642a 8047 0006 9045 642a 8045 0006 9043
6442 8043 001e 9043 642a 8043 0006 904a
642a 804a 0006 904c 6460 804c 0000 904c
642a 804c 0006 904d 642a 804d 0006 904c
642a 804c 0006 904d 642a 804d 0006 904c
642a 804c 0006 904d 642a 804d 0006 904c
642a 804c 0006 904d 640c 804d 0000 904c
640c 804c 0000 904d 6412 804d 0006 904f
642a 804f 0006 904d 642a 804d 0006 904c
645a 804c 0006 9047 642a 8047 0006 9043
642a 8043 0006 9048 6460 8048 0000 9047
642a 8047 0006 9048 642a 8048 0006 9047
642a 8047 0006 9048 642a 8048 0006 9047
642a 8047 0006 9048 642a 8048 0006 9047
642a 8047 0006 9048 640c 8048 0000 9047
640c 8047 0000 9048 6412 8048 0006 9047
642a 8047 0006 9045 642a 8045 0006 9043
6442 8043 001e 9043 642a 8043 0006 904a
642a 804a 0006 904c 6460 804c 0000 904c
642a 804c 0006 904d 642a 804d 0006 904c
642a 804c 0006 9048 642a 8048 0006 9047
642a 8047 0006 9048 642a 8048 0006 904c
642a 804c 0006 904d 640c 804d 0000 904c
640c 804c 0000 904d 6412 804d 0006 904f
642a 804f 0006 904d 642a 804d 0006 904c
642a 804c 0006 9048 6418 8048 0018 9047
642a 8047 0006 904f 642a 804f 0006 9048
6430 8048 0030 9047 642a 8047 0006 9048
642a 8048 0006 9047 642a 8047 0006 9048
642a 8048 0006 9047 642a 8047 0006 9048
642a 8048 0006 9047 642a 8047 0006 9048
640c 8048 0000 9047 640c 8047 0000 9048
6412 8048 0006 9047 642a 8047 0006 9045
642a 8045 0006 9043 6442 8043 001e 9043
642a 8043 0006 904a 642a 804a 0006 904c
6430 804c 0030 904c 642a 804c 0006 904d
642a 804d 0006 904c 642a 804c 0006 904d
642a 804d 0006 904c 642a 804c 0006 904d
642a 804d 0006 904c 642a 804c 0006 904d
640c 804d 0000 904c 640c 804c 0000 904d
6412 804d 0006 904f 642a 804f 0006 904d
642a 804d 0006 904c 642a 804c 0006 904c
642a 804c 0006 9047 642a 8047 0006 9043
642a 8043 0006 9048 6460 8048 0000 9047
642a 8047 0006 9048 642a 8048 0006 9047
642a 8047 0006 9048 642a 8048 0006 9047
642a 8047 0006 9048 642a 8048 0006 9047
642a 8047 0006 9048 640c 8048 0000 9047
640c 8047 0000 9048 6412 8048 0006 9047
642a 8047 0006 9045 642a 8045 0006 9043
6442 8043 001e 9043 642a 8043 0006 904a
642a 804a 0006 904c 6460 804c 0000 904c
642a 804c 0006 904d 642a 804d 0006 904c
642a 804c 0006 9048 642a 8048 0006 904f
642a 804f 0006 9051 642a 8051 0006 904f
642a 804f 0006 904c 640c 804c 0000 904d
640c 804d 0000 904c 6412 804c 0006 904d
642a 804d 0006 9048 642a 8048 0006 904c
642a 804c 0006 904a 6418 804a 0018 9048
642a 8048 0006 9047 642a 8047 0000 ff2f
00